<?xml version="1.0" ?><svg data-name="Your Icons" id="Your_Icons" viewBox="0 0 48 48" xmlns="http://www.w3.org/2000/svg"><defs><style>.cls-1{fill:#939598;}.cls-2{fill:#00a651;}.cls-3{fill:#fff;}</style></defs><title/><path class="cls-1" d="M37.72,17.6A4.07,4.07,0,0,0,33.63,14H32V12a8,8,0,0,0-16,0v2H14.37a4.07,4.07,0,0,0-4.09,3.6L9,29.73l-.36,3.51a6,6,0,1,1-.45,4.37l-.2,2a3.89,3.89,0,0,0,.38,2.12A8,8,0,0,0,14,44H35.89A4,4,0,0,0,40,39.6ZM18,12a6,6,0,0,1,12,0v2H18ZM37.49,41.3a2.13,2.13,0,0,1-1.6.7H19.29A8,8,0,0,0,21,40a.93.93,0,0,0,.24,0H34a1,1,0,0,0,0-2H21.74A8.24,8.24,0,0,0,22,36a8,8,0,0,0-8-8,7.9,7.9,0,0,0-2.83.52l1.1-10.72a2.07,2.07,0,0,1,2.1-1.8H16v2.89a1.5,1.5,0,1,0,2,0V16H30v2.89a1.5,1.5,0,1,0,2,0V16h1.63a2.07,2.07,0,0,1,2.1,1.8L38,39.8A1.9,1.9,0,0,1,37.49,41.3Z"/><path class="cls-2" d="M14,28a6.34,6.34,0,0,0-.76,0l-.25,0-.5.08-.28.06-.44.11-.28.09-.44.16-.24.1-.49.23-.16.08-.62.38-.07.05L9,29.73,9,29.78c-.13.11-.26.22-.38.34s-.28.26-.41.4-.25.26-.36.4-.18.23-.26.35l-.23.31L7.11,32a4,4,0,0,0-.2.35,3.14,3.14,0,0,0-.18.37c-.06.13-.12.27-.17.4s-.1.25-.14.37l-.14.47-.09.35a4.85,4.85,0,0,0-.09.55c0,.1,0,.2,0,.3A8.49,8.49,0,0,0,6,36a7.38,7.38,0,0,0,0,.82,2.93,2.93,0,0,0,0,.29,4.5,4.5,0,0,0,.08.51c0,.11,0,.21.08.32a3.31,3.31,0,0,0,.12.45c0,.11.07.22.11.33s.1.28.16.41.11.23.16.35a3.84,3.84,0,0,0,.18.35c.07.14.16.27.24.4a2.26,2.26,0,0,0,.16.26c.11.17.24.33.37.5a1,1,0,0,1,.08.11c.18.21.37.42.57.62s.32.29.49.43l0,0c.14.12.3.23.45.34l.18.13.33.2c.11.06.22.14.34.2l.19.09.51.24.07,0a8.34,8.34,0,0,0,1.42.43h.08a5.37,5.37,0,0,0,.7.11A7.32,7.32,0,0,0,14,44a8,8,0,0,0,0-16Z"/><path class="cls-3" d="M16.5,35H15V33.5a1,1,0,0,0-2,0V35H11.5a1,1,0,0,0,0,2H13v1.5a1,1,0,0,0,2,0V37h1.5a1,1,0,0,0,0-2Z"/></svg>